<?xml version="1.0" encoding="UTF-8"?>
<svg version="1.1" viewBox="0 0 2048 1021" width="1424" height="710" xmlns="http://www.w3.org/2000/svg">
<path transform="translate(0)" d="m0 0h2048v1021h-2048z" fill="#D7D7D7"/>
<path transform="translate(842,234)" d="m0 0h284l17 4 16 8 9 7 11 11 8 13 5 13 2 9v292l-4 15-7 14-8 10-9 9-14 9-13 5-16 3h-279l-16-3-13-5-12-8-10-9-8-10-8-16-4-17v-286l3-14 5-12 7-11 9-10 8-7 14-8 12-4z" fill="#4D4E5E"/>
<path transform="translate(974,305)" d="m0 0h19l11 4 11 7 9 11 5 13 1 6v10l-3 12-5 9-9 10-10 6-5 2h-3v39h82v61l6 1 10 6 7 6 6 9 4 9 1 5v18l-4 11-6 9-7 7-10 6-10 3h-17l-12-4-9-6-5-4-7-11-4-10-1-6v-10l3-12 6-11 8-8 10-6 7-3 1-37-140 1v36l16 8 7 6 7 11 4 12v16l-4 13-8 11-8 7-13 6-4 1h-17l-13-4-11-8-8-10-5-12-1-5v-12l3-13 6-10 9-9 8-5 8-3 1-60h81v-39l-6-1-10-6-5-4-9-12-4-13-1-9 2-12 4-9 5-8 8-8 12-6z" fill="#D7D7D7"/>
<path transform="translate(1070,708)" d="m0 0h52l17 3 14 7 7 8 4 10v16l-4 11-7 8-10 6-14 4-10 1h-14l1 29 2 9 10 5v3h-49l2-4 6-3 1-3v-99l-2-4-7-4z" fill="#4D4E5E"/>
<path transform="translate(1212,738)" d="m0 0h10l12 3 10 5 8 7 7 12 3 14v10l-3 15-6 11-8 8-11 6-8 2h-18l-13-4-11-8-7-10-4-11-1-5v-17l3-11 4-8 9-10 9-5 9-3z" fill="#4D4E5E"/>
<path transform="translate(558,701)" d="m0 0h6l1 5v44l8-6 12-5 13-1 10 3 8 7 3 7 1 6 1 58 4 4 3 2v3h-42l1-4 6-3 1-3v-61l-2-5-4-2h-9l-11 4-3 2v61l3 5 4 3v3h-41l1-4 6-4 1-5v-96l-3-5-6-3 1-3z" fill="#4D4E5E"/>
<path transform="translate(816,707)" d="m0 0h14l4 10 29 85 7 18 9 5v3l-21 1h-15l-11-1 1-4 6-3 1-4-5-17-2-6v-4l-41 1-8 25 1 5 7 4v3h-28l1-4 10-5 4-9 21-61 14-40z" fill="#4D4E5E"/>
<path transform="translate(1452,738)" d="m0 0h10l10 2 8 4 7 8 3 10 1 52 2 4 10 2-1 4-8 6-4 1h-8l-8-3-6-7-3-3-1 3-11 8-5 2h-14l-10-5-6-7-2-5v-10l4-8 9-8 12-5 25-5-1-22-3-9-3-2h-10l-3 3-5 17-4 5-2 1h-8l-5-3-2-4v-8l3-6 9-7 13-4z" fill="#4D4E5E"/>
<path transform="translate(676,738)" d="m0 0h9l10 2 9 5 7 7 5 10 2 11-1 10-2 1h-44l-9-1 2 16 4 9 4 5 9 4h15l10-4 7-6h2l1 5-7 8-7 6-10 4-4 1h-15l-12-3-10-6-7-7-6-12-2-8v-20l4-12 6-9 7-7 14-7z" fill="#4D4E5E"/>
<path transform="translate(418,708)" d="m0 0h104l1 13v18h-5l-12-22-4-2-19-1 1 104 3 3 10 3 1 4h-56l1-4 10-3 2-2 1-5v-100l-19 1-5 5-8 15-2 4h-5v-30z" fill="#4D4E5E"/>
<path transform="translate(1536,701)" d="m0 0h6l1 118 4 4 4 2v3l-30 1-13-1 1-4 5-2 2-5v-100l-3-3-5-2v-4z" fill="#4D4E5E"/>
<path transform="translate(1299,738)" d="m0 0 3 2 1 6v10h2l2-5 8-8 8-4 8-1 8 3 4 6v9l-4 6-4 2-10-1-10-8-5 2-5 8v53l4 4 6 3 1 3h-46l1-4 6-3 1-3v-59l-2-4-6-3 1-4z" fill="#4D4E5E"/>
<path transform="translate(914,738)" d="m0 0 3 2 2 15 11-12 8-4 8-1 7 2 4 5 1 3v7l-3 5-5 4h-7l-6-3-7-6-5 2-5 8v54l6 4 5 3-1 2h-45l1-4 6-4 1-2v-59l-2-4-6-3v-3l9-4z" fill="#4D4E5E"/>
<path transform="translate(993,716)" d="m0 0h6v25h21v5l-1 1h-20l1 67 3 5 4 2 7-1 5-4 4 1-2 5-6 5-7 3-5 1h-12l-8-3-5-5-3-5-1-4v-67h-13l1-5 12-3 7-6z" fill="#4D4E5E"/>
<path transform="translate(1378,716)" d="m0 0h7l-1 25h21v5l-1 1h-20l1 67 4 6 7 1 6-3 5-2 1 3-6 7-8 4-5 1h-13l-7-3-7-6-3-9v-66h-12l-1-4 7-2 9-4 8-9z" fill="#4D4E5E"/>
<path transform="translate(1211,744)" d="m0 0h12l6 4 4 9 2 12v32l-3 15-4 6-5 3h-12l-6-4-3-4-3-14v-37l3-13 4-6z" fill="#D7D7D7"/>
<path transform="translate(1106,713)" d="m0 0 15 1 8 3 5 5 3 5 2 10v17l-2 9-6 9-10 4h-16v-62z" fill="#D7D7D7"/>
<path transform="translate(1235,870)" d="m0 0h17l8 4 4 5 2 8v9l-4 10-6 5-9 2h-11l-1-1z" fill="#4D4E5E"/>
<path transform="translate(1028,870)" d="m0 0h18l7 3 2 3v8l-4 6 5 3 2 4v6l-4 6-5 3-5 1h-15l-1-1z" fill="#4D4E5E"/>
<path transform="translate(812,731)" d="m0 0 2 1 16 49v3h-36l12-36z" fill="#D7D7D7"/>
<path transform="translate(674,744)" d="m0 0h11l6 4 3 6 1 6v13l-1 5h-32v-10l3-14 4-6z" fill="#D7D7D7"/>
<path transform="translate(1622,870)" d="m0 0h19l6 3 3 5v8l-4 6-4 3 9 16v2h-5l-6-9-4-7v-2h-7l-1 17-5 1-1-1z" fill="#4D4E5E"/>
<path transform="translate(379,870)" d="m0 0h19l6 3 3 5v8l-4 6-4 3 9 16v2h-5l-6-9-4-7v-2h-7l-2 18-5-1z" fill="#4D4E5E"/>
<path transform="translate(215,870)" d="m0 0h19l7 4 2 4v7l-3 5-5 4 2 5 7 12v2l-7-1-9-16-8-1v17l-4 1-1-1z" fill="#4D4E5E"/>
<path transform="translate(52,870)" d="m0 0h5l2 6 5 28 8-32 1-2h5l4 13 5 21 6-31 1-3h5l-1 9-7 33-3 1-5-2-7-29-2 4-6 24-3 3-5-1-8-37z" fill="#4D4E5E"/>
<path transform="translate(1574,870)" d="m0 0h19l6 3 3 3 1 9-3 6-5 4-4 1h-11v16l-5 1-1-1z" fill="#4D4E5E"/>
<path transform="translate(1464,783)" d="m0 0h2v30l-8 5-3 1h-7l-5-3-3-4-1-9 3-9 5-5 8-4z" fill="#D7D7D7"/>
<path transform="translate(769,870)" d="m0 0h7l4 10 7 19 4-10 7-19h7v42l-5 1-1-1v-31l-9 25-2 2h-3l-10-27v31l-5 1-1-1z" fill="#4D4E5E"/>
<path transform="translate(1845,874)" d="m0 0h6l6 4 3 7v12l-4 8-5 3h-7l-5-3-3-6-1-4v-8l3-8 4-4z" fill="#D7D7D7"/>
<path transform="translate(1089,874)" d="m0 0 9 1 5 5 2 6v9l-3 9-6 4h-7l-5-3-3-5-1-4v-10l3-7z" fill="#D7D7D7"/>
<path transform="translate(1886,870)" d="m0 0h6l15 27 3 5 1-32h5v42l-5 1-4-5-14-25-1-1-1 30-5 1-1-1v-41z" fill="#4D4E5E"/>
<path transform="translate(480,870)" d="m0 0h7l14 41-2 2-4-1-3-9v-3l-16 1-3 10-4 2-3-2z" fill="#4D4E5E"/>
<path transform="translate(1183,870)" d="m0 0h6l14 25 4 7 1-32h5v42l-3 1-4-2-15-26-2-4-1 31-4 1-1-1z" fill="#4D4E5E"/>
<path transform="translate(1844,869)" d="m0 0h7l7 3 6 7 2 7v10l-3 9-8 7-2 1h-10l-7-4-5-7-1-3v-16l4-8 5-4zm1 5-5 3-4 6-1 4v8l3 8 4 4 2 1h7l5-3 4-8v-12l-4-8-5-3z" fill="#4D4E5E"/>
<path transform="translate(1089,869)" d="m0 0h7l8 4 4 5 2 4 1 12-2 8-4 6-5 4-2 1h-10l-6-3-5-6-3-10 1-12 5-8 5-4zm0 5-7 6-2 6v10l3 8 3 3 3 1h7l6-4 3-9v-9l-4-9-6-3z" fill="#4D4E5E"/>
<path transform="translate(117,870)" d="m0 0h6v18h19v-18h6v42l-5 1-1-1v-20h-19v20l-5 1-1-1z" fill="#4D4E5E"/>
<path transform="translate(1241,874)" d="m0 0 11 1 6 5 2 5v12l-3 6-3 3-7 2h-6z" fill="#D7D7D7"/>
<path transform="translate(1130,870)" d="m0 0h6l1 31 3 5 1 1h8l4-3 1-3 1-30 1-1h5v29l-2 7-4 5-5 2h-9l-6-3-4-6-1-4z" fill="#4D4E5E"/>
<path transform="translate(1670,870)" d="m0 0h25l-1 5h-18v13h16v4h-16v16h19v5h-24l-1-1z" fill="#4D4E5E"/>
<path transform="translate(427,870)" d="m0 0h25l-1 5h-18v13h16v4h-16v16h19v5h-24l-1-1z" fill="#4D4E5E"/>
<path transform="translate(827,870)" d="m0 0h24v5h-18v13h16v4h-16v16h19l-1 5h-23l-1-1z" fill="#4D4E5E"/>
<path transform="translate(263,870)" d="m0 0h25l-1 5h-18v13h16v4h-16v15l19 1-1 5h-23l-1-1z" fill="#4D4E5E"/>
<path transform="translate(1486,870)" d="m0 0h24v5h-19v13h16v4l-15 1v14l19 1-1 5h-24l-1-16v-21z" fill="#4D4E5E"/>
<path transform="translate(170,870)" d="m0 0h24v5h-18v13h16v4h-16v15l19 1-1 5h-23l-1-1z" fill="#4D4E5E"/>
<path transform="translate(968,869)" d="m0 0h7l8 4v4l-2 1-7-3-9 1v7l4 3 11 5 5 5 1 6-3 7-7 4h-9l-8-3-3-4 4-3 6 4h10l3-4-1-5-16-9-3-3-1-8 4-6z" fill="#4D4E5E"/>
<path transform="translate(1381,869)" d="m0 0h7l8 4v4l-2 1-7-3-9 1v7l4 3 10 4 5 4 2 5-2 9-5 4-3 1h-9l-9-4-2-3 4-3 7 4h9l3-3v-5l-5-4-12-6-3-3-1-7 3-6 4-3z" fill="#4D4E5E"/>
<path transform="translate(1768,869)" d="m0 0h7l8 4v4l-2 1-7-3h-6l-3 2v6l4 3 14 7 2 3v10l-5 5-4 2h-9l-8-3-3-4 4-3 6 4h10l3-4-1-5-16-9-4-5 1-9 6-5z" fill="#4D4E5E"/>
<path transform="translate(1425,869)" d="m0 0h7l7 3 2 4-3 2-6-3h-6l-4 3 1 6 16 8 3 3 1 9-4 6-6 3h-9l-9-4v-4l1-2 8 4h9l3-3v-6l-17-9-3-4v-9l4-5z" fill="#4D4E5E"/>
<path transform="translate(1723,869)" d="m0 0h8l8 4-1 4h-3l-5-2h-6l-3 2-1 4 1 3 16 8 4 5v8l-5 6-5 2h-9l-10-5 2-5 8 4h9l3-2v-7l-15-8-5-6v-7l5-6z" fill="#4D4E5E"/>
<path transform="translate(872,870)" d="m0 0h24v5h-19v13h16v4l-15 1-1 15h20l-1 5h-23l-1-1z" fill="#4D4E5E"/>
<path transform="translate(1328,870)" d="m0 0h24v5h-19v13h16v4h-16v16h20l-1 5h-23l-1-1z" fill="#4D4E5E"/>
<path transform="translate(1527,870)" d="m0 0h6l8 15 3-4 6-11h6l-7 14-3 5 1 6 9 15v3h-5l-8-14-1-4h-2l-2 6-7 12h-5l1-4 10-18-6-12-4-7z" fill="#4D4E5E"/>
<path transform="translate(583,870)" d="m0 0h5l3 8 8 27 10-33 1-2h5l-1 7-10 32-2 4-7-2-12-37z" fill="#4D4E5E"/>
<path transform="translate(344,869)" d="m0 0h7l6 3 2 4-3 2-5-3-9 1-3 1-2 5-1 3v13l3 6 4 3h9l5-3h2l1 4-6 4-3 1h-8l-8-4-5-8-1-4v-11l3-9 7-6z" fill="#4D4E5E"/>
<path transform="translate(912,870)" d="m0 0h32l-1 5h-12v37l-5 1-1-1v-37h-12z" fill="#4D4E5E"/>
<path transform="translate(511,870)" d="m0 0h31v5h-12v30l-1 7-4 1-1-1v-37h-13z" fill="#4D4E5E"/>
<path transform="translate(699,870)" d="m0 0h5l8 16 1 4h2l3-9 5-11h6l-2 6-9 18-1 17-3 2-3-1-1-17-11-23z" fill="#4D4E5E"/>
<path transform="translate(656,870)" d="m0 0h31v5h-13v37l-4 1-1-1-1-9v-19l1-9h-13z" fill="#4D4E5E"/>
<path transform="translate(1286,870)" d="m0 0h5l1 37 18 1-1 5h-23l-1-11v-25z" fill="#4D4E5E"/>
<path transform="translate(632,870)" d="m0 0h6v42l-5 1-1-1z" fill="#4D4E5E"/>
<path transform="translate(1580,874)" d="m0 0 13 1 4 4v7l-4 4-3 1h-10z" fill="#D7D7D7"/>
<path transform="translate(561,870)" d="m0 0h5v42l-5 1-1-1v-41z" fill="#4D4E5E"/>
<path transform="translate(1034,892)" d="m0 0h8l8 2 2 3v6l-4 4-4 1h-10z" fill="#D7D7D7"/>
<path transform="translate(1804,870)" d="m0 0h6v42l-3 1-3-1z" fill="#4D4E5E"/>
<path transform="translate(221,874)" d="m0 0 12 1 4 3v8l-4 3-3 1h-10v-15z" fill="#D7D7D7"/>
<path transform="translate(385,874)" d="m0 0 13 1 3 3 1 5-3 5-5 2h-9l-1-1z" fill="#D7D7D7"/>
<path transform="translate(1628,874)" d="m0 0 13 1 3 3v8l-3 3-4 1h-9l-1-4z" fill="#D7D7D7"/>
<path transform="translate(1034,874)" d="m0 0 13 1 3 4-1 6-2 2-4 1h-9z" fill="#D7D7D7"/>
<path transform="translate(483,875)" d="m0 0 2 2 5 18h-12l1-7z" fill="#D7D7D7"/>
</svg>
